<?xml version="1.0" encoding="UTF-8"?>
<svg width="4703px" height="4703px" viewBox="0 0 4703 4703" version="1.1" xmlns="http://www.w3.org/2000/svg" xmlns:xlink="http://www.w3.org/1999/xlink">
    <!-- Generator: Sketch 56.3 (81716) - https://sketch.com -->
    <title>Artboard Copy 7</title>
    <desc>Created with Sketch.</desc>
    <defs>
        <circle id="path-1" cx="2314" cy="2352" r="1952"></circle>
        <path d="M121.363839,47.8156595 C143.022798,68.9407802 152.390014,90.525873 165.736949,94.8282436 C168.244399,95.6365178 171.133265,95.8212415 174.403544,95.3824145 C179.95998,94.6368163 190.77207,89.4682117 206.839814,79.8766007 C209.171875,85.5462472 211.405256,91.6412929 213.539956,98.1617379 C215.674657,104.682183 222.115651,113.959486 232.862936,125.993648 C203.122425,154.009767 182.238045,169.253089 170.209796,171.723615 C152.167423,175.429404 127.043081,174.510238 109.261858,162.798772 C91.4806344,151.087306 23.3271313,105.477516 10.4971995,85.4267704 C-2.33273224,65.3760248 -2.73718132,48.3338624 12.6469582,23.6392232 C28.0310978,-1.05541604 60.9339712,-3.39456218 74.1545266,5.42902777 C87.3750821,14.2526177 99.7048801,26.6905389 121.363839,47.8156595 Z" id="path-3"></path>
        <linearGradient x1="90.7130155%" y1="43.0563807%" x2="7.80564194%" y2="47.5867069%" id="linearGradient-5">
            <stop stop-color="#5D47FF" offset="0%"></stop>
            <stop stop-color="#141E3B" stop-opacity="0" offset="100%"></stop>
        </linearGradient>
        <path d="M925.372541,521.471946 C920.795395,549.319985 752.795194,553.967127 483.086295,563.244005 C220.800266,572.259808 4.47429109,551.634853 1.93714518,513.3438 C-17.7085927,216.988443 204.44596,10.6866852 466.611989,0.487340693 C749.846618,-10.53004 966.395446,271.605411 925.372541,521.471946 Z" id="path-6"></path>
        <linearGradient x1="27.9696977%" y1="50%" x2="72.0215568%" y2="48.1865068%" id="linearGradient-8">
            <stop stop-color="#FFFFFF" stop-opacity="0.5" offset="0%"></stop>
            <stop stop-color="#000000" stop-opacity="0.5" offset="100%"></stop>
            <stop stop-color="#000000" stop-opacity="0.5" offset="100%"></stop>
        </linearGradient>
        <path d="M487.788126,141.503974 L67.2963769,141.503974 C30.6125276,141.389276 0.90138793,110.029233 0.792721162,71.3095092 C0.792721162,32.7051641 41.7205847,1.11504425 78.2951222,1.11504425 L473.408957,1.11504425 C509.983494,1.11504425 554.291782,32.7051641 554.291782,71.3095092 C554.183115,110.029233 524.471975,141.389276 487.788126,141.503974 Z" id="path-9"></path>
        <path d="M487.788126,141.041979 L67.2963769,141.041979 C30.6125276,140.927281 0.90138793,109.567238 0.792721162,70.8475141 C0.792721162,32.2431691 41.7205847,0.653049199 78.2951222,0.653049199 L473.408957,0.653049199 C509.983494,0.653049199 554.291782,32.2431691 554.291782,70.8475141 C554.183115,109.567238 524.471975,140.927281 487.788126,141.041979 Z" id="path-10"></path>
        <linearGradient x1="71.7539834%" y1="32.9639673%" x2="47.0351877%" y2="70.8584354%" id="linearGradient-12">
            <stop stop-color="#FFFFFF" stop-opacity="0.5" offset="0%"></stop>
            <stop stop-color="#000000" stop-opacity="0.5" offset="100%"></stop>
        </linearGradient>
        <path d="M16.1782622,25.7272632 C28.9754217,15.25188 41.3716998,7.54615667 53.3670965,2.61009306 C71.3601914,-4.79400235 106.579319,6.35064647 123.690292,18.9420093 C140.801265,31.5333722 157.706775,44.4016798 169.514058,59.1722113 C181.321342,73.9427427 196.300977,90.6553738 196.300977,104.234878 C196.300977,113.287881 197.81136,122.235872 200.832125,131.07885 C179.091382,133.162434 164.151926,140.179639 156.013758,152.130464 C143.806506,170.056702 117.057941,146.89919 111.354283,131.07885 C105.650625,115.258509 72.2450528,130.261935 38.3463688,106.761757 C4.44768475,83.2615786 12.9620786,91.0631794 3.64774813,71.2327456 C-2.56180554,58.0124563 1.61503247,42.8439622 16.1782622,25.7272632 Z" id="path-13"></path>
        <path d="M441.243408,286.800148 C432.782282,330.295619 387.889382,408.707134 370.50894,430.047676 C353.128497,451.388218 333.01515,476.405274 300.680972,504.108359 C279.124853,522.577083 254.600772,539.841574 227.108729,555.901832 C141.098812,481.980397 89.9473688,438.903579 73.6543994,426.671379 C49.2149453,408.323079 -6.31337385,358.889461 1.43211275,295.20622 C9.17759935,231.522979 14.5733515,194.460348 43.3114131,146.631932 C72.0494747,98.8035151 128.447986,36.9662673 174.76879,6.72403399 C221.089594,-23.5181994 262.943363,67.1757151 297.724649,112.630607 C332.505934,158.085498 449.704534,243.304677 441.243408,286.800148 Z" id="path-15"></path>
        <linearGradient x1="55.8162655%" y1="37.6655965%" x2="0%" y2="52.522219%" id="linearGradient-17">
            <stop stop-color="#FFFFFF" stop-opacity="0" offset="0%"></stop>
            <stop stop-color="#D957D9" offset="100%"></stop>
        </linearGradient>
        <path d="M470.558607,321.674173 C429.8392,254.941419 394.394049,209.452382 364.223153,185.207061 C318.966809,148.839079 287.248927,101.910515 215.521588,83.2479605 C143.794248,64.5854063 83.2671821,73.0342973 60.9965824,107.13832 C38.7259827,141.242342 18.7539548,173.168376 43.8405071,189.486358 C68.9270595,205.804339 56.2117947,212.602195 68.3741982,223.320809 C76.4824672,230.466552 86.4118094,234.478267 98.1622247,235.355953 C118.947095,195.537174 146.566445,173.299093 181.020273,168.64171 C232.701016,161.655636 263.933353,187.934634 344.267904,234.598034 C397.824272,265.706968 439.921173,294.732347 470.558607,321.674173 Z" id="path-18"></path>
    </defs>
    <g id="Artboard-Copy-7" stroke="none" stroke-width="1" fill="none" fill-rule="evenodd">
        <mask id="mask-2" fill="white">
            <use xlink:href="#path-1"></use>
        </mask>
        <use id="Oval" fill="#5788FA" xlink:href="#path-1"></use>
        <g id="Group-3-Copy-2" mask="url(#mask-2)">
            <g transform="translate(1990.000000, 2883.000000) scale(-1, 1) translate(-1990.000000, -2883.000000) translate(-286.000000, 895.000000)">
                <g id="Group-2-Copy" transform="translate(2276.430797, 1988.203918) scale(-1, 1) rotate(-17.000000) translate(-2276.430797, -1988.203918) translate(352.430797, 498.203918)">
                    <g id="Unicorn" transform="translate(0.064878, 0.497150)">
                        <path d="M1115.16432,1205.11605 C1008.59941,1193.12208 916.649267,1238.21637 839.313894,1340.39894 C723.310835,1493.67279 720.745903,1751.59792 679.70699,1872.27153 C638.668077,1992.94513 582.800651,2039.96161 523.526675,2039.96161 C484.010691,2039.96161 421.93132,2039.96161 337.288563,2039.96161 C538.996422,2142.78804 706.338198,2127.20929 839.313894,1993.22535 C1038.77744,1792.24945 912.394418,1703.93011 959.284582,1545.227 C990.544691,1439.42493 1042.5046,1326.05461 1115.16432,1205.11605 Z" id="dark-tail" fill="#2F1A5F"></path>
                        <path d="M1151.80937,1159.25912 C1038.71551,1000.796 922.139824,934.281503 802.082302,959.715637 C621.996019,997.866839 565.567514,1112.47574 403.976796,1112.47574 C296.24965,1112.47574 220.584155,1093.93353 176.980311,1056.8491 C289.369755,1259.83419 421.650781,1337.62236 573.823389,1290.21362 C802.082302,1219.1005 899.910413,1159.25912 999.201337,1159.25912 C1065.39529,1159.25912 1098.49226,1179.20625 1098.49226,1219.1005 L1151.80937,1159.25912 Z" id="far-tail" fill="#917EF2"></path>
                        <path d="M1151.80937,1186.1529 C1081.21056,1148.08998 997.437946,1129.05852 900.491531,1129.05852 C755.071907,1129.05852 629.650738,1249.02166 583.522039,1370.23569 C537.393339,1491.44972 451.107422,1723.04938 346.74675,1723.04938 C242.386078,1723.04938 175.697845,1746.78779 111.574544,1687.12151 C68.8256763,1647.34398 31.6341618,1604.7073 0,1559.21145 C26.5042977,1777.24114 116.918152,1886.25598 271.241563,1886.25598 C502.726679,1886.25598 674.877704,1819.16393 758.017571,1629.81705 C841.157439,1440.47017 855.164372,1315.83349 961.508859,1259.52982 C1032.40518,1221.99403 1078.06632,1214.60163 1098.49226,1237.35261 L1151.80937,1186.1529 Z" id="middle-tail" fill="#6437CC"></path>
                        <path d="M1858.65395,1886.25598 C1834.46745,2132.98737 1793.2916,2270.56743 1735.12643,2298.99615 C1647.87866,2341.63923 1474.81902,2366.51631 1474.81902,2394.54916 C1474.81902,2422.58202 1737.51389,2664.41659 1737.51389,2664.41659 C1737.51389,2664.41659 1715.96802,2900.97312 1691.35226,2924.21114 C1652.90351,2905.48692 1652.90351,2905.48692 1611.48436,2835.77284 C1628.3248,2778.28932 1691.35226,2711.96953 1691.35226,2689.84934 C1691.35226,2667.72916 1336.89862,2406.31208 1336.89862,2352.65412 C1336.89862,2298.99615 1450.75963,2230.8633 1450.75963,2191.64287 C1450.75963,2152.42245 1474.81902,1999.52384 1474.81902,1979.31817 C1474.81902,1965.84772 1602.764,1934.82699 1858.65395,1886.25598 Z" id="back-leg_far" fill="#318C6E"></path>
                        <path d="M2364.04797,1861.47045 C2530.06573,1999.53174 2618.06754,2081.35314 2628.05341,2106.93466 C2643.03221,2145.30693 2543.72626,2451.51446 2522.74091,2489.94427 C2501.75556,2528.37408 2419.48236,2602.32175 2379.8261,2689.84934 C2400.77973,2689.84934 2448.418,2676.82257 2522.74091,2650.76903 C2658.99036,2316.82266 2727.11508,2127.52565 2727.11508,2082.87801 C2727.11508,2038.23037 2679.40628,1953.97851 2583.98868,1830.12244 L2364.04797,1861.47045 Z" id="far-front-leg" fill="#318C6E"></path>
                        <path d="M1151.80937,1159.25912 C1081.42863,1203.92417 942.612524,1336.56958 942.612524,1532.46153 C942.612524,1728.35349 968.04142,1795.86586 1059.9254,1928.96911 C1121.18138,2017.70461 1159.21199,2094.20481 1174.01724,2158.46971 L1006.81822,2317.75003 L1174.01724,2947.81945 L1353.182,2978.6834 C1348.72782,2882.06932 1325.7823,2833.76228 1284.34543,2833.76228 C1222.19012,2833.76228 1169.41405,2739.95821 1160.61171,2650.44878 C1151.80937,2560.93934 1129.60151,2410.103 1151.80937,2363.92652 C1174.01724,2317.75003 1503.89179,2208.9734 1599.35536,2068.97126 C1662.99773,1975.63649 1750.2865,1916.1595 1861.22166,1890.54027 C2123.36388,1911.5327 2275.0012,1908.17117 2316.13363,1880.45569 C2377.83227,1838.88247 2557.59794,1934.76006 2682.45803,2001.86566 C2765.69809,2046.60273 2870.15561,2087.81813 2995.8306,2125.51188 C2917.82365,2363.06929 2857.07017,2498.72118 2813.57014,2532.46756 C2770.07011,2566.21394 2726.36607,2605.54102 2682.45803,2650.44878 C2746.69677,2673.03232 2797.12588,2684.32409 2833.74535,2684.32409 C2870.36482,2684.32409 2954.18783,2481.8804 3085.21438,2076.99302 L2749.98329,1797.28346 C2841.66931,1664.3827 2887.51232,1562.43812 2887.51232,1491.44972 C2887.51232,1420.46132 2869.59,1203.18611 2833.74535,839.624087 L2896.63038,782.203689 L2976.50344,940.306572 C3066.20926,1021.64453 3111.06218,1079.74036 3111.06218,1114.59407 C3111.06218,1166.87462 3183.38124,1198.09021 3230.5319,1198.09021 C3277.68257,1198.09021 3318.46098,1165.5369 3318.46098,1072.82499 C3318.46098,980.113067 3202.81554,349.876325 3056.4171,212.297457 C2910.01867,74.7185902 2690.37325,159.496499 2595.19022,247.164504 C2500.0072,334.83251 2317.87698,722.704162 2216.54213,871.188572 C2115.20727,1019.67298 1991.45303,1114.59407 1745.58024,1114.59407 C1499.70746,1114.59407 1222.19012,1114.59407 1151.80937,1159.25912 Z" id="body" fill="#F6F5FA"></path>
                        <path d="M3024.53442,596.836056 C3021.95613,633.069389 3029.7745,658.009746 3047.98952,671.657125 C3066.20455,685.304505 3081.92143,687.24321 3095.14019,677.473241" id="Path" stroke="#323233" stroke-width="4"></path>
                        <path d="M2915.04526,229.210577 C2976.36818,192.052879 3024.89816,155.616817 3060.63521,119.90239 C3095.10149,85.4579339 3166.26833,68.2357059 3274.13575,68.2357059 C3215.99729,136.62876 3177.07912,191.993374 3157.38124,234.329548 C3137.68337,276.665722 3115.75787,321.261983 3091.60476,368.118331 L2915.04526,229.210577 Z" id="Path-38" fill="#A2A2A6"></path>
                        <g id="horn" transform="translate(3130.499552, 102.649072)">
                            <g id="Group-95" transform="translate(0.000000, -0.000000)" fill="#FFCC00">
                                <path d="M5.45696821e-12,281.161431 C9.83390936,341.438189 36.6304357,378.964525 56.4285048,411.402462 C74.7587516,408.992843 80.9062171,404.723173 100.032349,393.46855 C111.21915,386.824255 127.462857,380.25207 143.612951,370.585879 C160.848767,360.34824 718.180971,16.4560944 715.616039,4.04646799 C715.425837,3.12623573 715.595749,-0.332749504 708.627601,1.48448061 C621.62804,24.1731799 43.1347486,248.768753 5.45696821e-12,281.161431 Z" id="Fill-93"></path>
                            </g>
                            <path d="M513.626566,142.393787 C528.625667,132.507962 543.00418,122.912613 556.590252,113.762658 C553.420487,93.5649795 552.227051,73.1252389 552.981303,52.7242283 C538.010845,58.3013437 522.056996,64.3432187 505.291611,70.7336634 C505.663963,94.8430685 508.423187,118.826601 513.626566,142.393787" id="Fill-96" fill="#AA2293"></path>
                            <path d="M600.769039,86.0300643 C617.664407,73.7991145 632.293091,62.8705796 643.797942,53.4892747 C642.645552,43.88274 641.97888,34.2076573 641.788402,24.5423671 C629.283544,28.0579083 613.511994,33.2577756 595.064233,39.8188136 C595.959478,55.3009046 597.883302,70.7144474 600.769039,86.0300643" id="Fill-98" fill="#AA2293"></path>
                            <path d="M411.372057,206.443471 C425.730406,197.55505 440.011456,188.676228 453.992971,179.854999 C447.219618,151.721131 444.465829,122.598595 445.944179,93.7160264 C430.117143,99.8496127 413.932597,106.136779 397.564466,112.558327 C397.844676,144.243723 402.511622,175.938718 411.372057,206.443471" id="Fill-100" fill="#AA2293"></path>
                            <path d="M306.722049,270.493156 C320.593949,262.08339 334.639852,253.548965 348.830757,244.793986 C338.158578,210.090518 333.682836,173.440434 335.944874,137.269812 C319.685267,143.761729 303.328992,150.272825 287.272388,156.822277 C287.378723,195.294317 294.058502,233.98691 306.722049,270.493156" id="Fill-102" fill="#AA2293"></path>
                            <path d="M201.347516,334.54284 C214.829365,326.548947 229.028021,318.138402 243.668544,309.349965 C227.221276,269.55491 219.287311,226.242543 220.671827,183.385585 C203.900524,190.187661 187.600546,196.805636 171.850447,203.229819 C173.13677,248.27662 183.230974,293.168387 201.347516,334.54284" id="Fill-104" fill="#AA2293"></path>
                            <path d="M102.044235,393.46855 C113.287412,386.844969 127.40471,378.572723 143.636194,368.950694 C119.766365,327.348432 105.814694,279.836046 103.612824,232.063345 C86.2609196,239.236481 70.3801763,245.869704 56.4285048,251.683415 C61.3193841,301.336172 77.0052716,350.207983 102.044235,393.46855" id="Fill-106" fill="#AA2293"></path>
                        </g>
                        <path d="M3158.44328,374.643392 C3089.5623,146.506422 2991.24992,23.0306394 2863.50616,4.21604457 C2671.89051,-24.0058477 2525.97713,93.8255564 2408.47118,227.199017 C2290.96523,360.572477 2233.68509,399.772886 2188.14753,399.772886 C2157.78915,399.772886 2103.98236,384.717874 2026.72714,354.60785 C2066.67729,474.767727 2137.32647,534.847666 2238.67469,534.847666 C2390.69701,534.847666 2467.80528,314.611898 2695.48307,227.199017 C2847.26827,168.923763 3001.58834,218.071888 3158.44328,374.643392 Z" id="Path-39" fill="#318C6E"></path>
                        <path d="" id="Path-40" stroke="#979797"></path>
                        <path d="M3158.44328,374.643392 C2992.91833,177.524926 2836.87495,94.8040913 2690.31313,126.480888 C2470.4704,173.996082 2317.96716,421.960097 2270.38566,534.847666 C2222.80417,647.735235 2193.72826,773.833051 2103.97568,816.74634 C2044.14062,845.355199 1983.62092,798.742374 1922.41656,676.907865 C1939.67642,883.594862 2009.04981,976.990645 2130.53675,957.095211 C2312.76716,927.252062 2409.40798,695.051939 2474.91895,534.847666 C2540.42992,374.643392 2675.74512,267.423833 2804.8133,267.423833 C2890.85875,267.423833 3008.73542,303.163686 3158.44328,374.643392 Z" id="Path-41" fill="#246650"></path>
                        <path d="M2995.8306,307.331177 C2867.8445,209.995672 2733.42937,209.995672 2592.58521,307.331177 C2381.31897,453.334434 2387.7313,614.209228 2387.7313,810.681636 C2387.7313,1007.15404 2264.35406,1158.25125 2081.34216,1178.32683 C2130.53675,1208.43018 2327.39528,1290.53387 2459.99025,1076.34772 C2592.58521,862.16157 2516.549,718.17988 2649.04377,518.244787 C2737.37362,384.954724 2852.96923,314.650188 2995.8306,307.331177 Z" id="Path-42" fill="#164032"></path>
                        <path d="" id="Path-43" stroke="#979797"></path>
                    </g>
                    <path d="M1882.55097,953.151899 C2051.46013,933.620565 2233.71491,913.549311 2429.31532,892.938137 C2624.91572,872.326963 2781.11807,852.84612 2897.92235,834.495607 L1882.55097,953.151899 Z" id="Path-44" stroke="#828285" stroke-width="12"></path>
                    <path d="M2971.46944,303.743158 C2971.46944,303.743158 3051.5668,212.20417 3125.83889,212.20417 C3175.35362,212.20417 3223.34843,193.486871 3269.82331,156.052272 L3334.10207,99.2549498 C3310.28545,187.35046 3274.28935,255.513197 3226.11375,303.743158 C3177.93816,351.97312 3144.51321,375.030326 3125.83889,372.914775 C3105.54233,380.203725 3080.3555,375.05948 3050.2784,357.482038 C3005.16275,331.115875 2971.46944,303.743158 2971.46944,303.743158 Z" id="Path-45" fill="#D8D8D8"></path>
                    <path d="M2971.98129,300.568876 L2899.45476,827.930173" id="Path-46" stroke="#979797" stroke-width="12"></path>
                    <path d="M2903.40788,830.27408 C2938.33929,905.557967 2978.57096,960.491435 3024.10288,995.074485 C3094.40243,992.388745 3181.64163,950.227238 3285.82047,868.589966" id="Path-47" stroke="#979797" stroke-width="12"></path>
                </g>
                <g id="Margot-sitting" transform="translate(2761.201172, 1256.092889) scale(-1, 1) rotate(-13.000000) translate(-2761.201172, -1256.092889) translate(2119.201172, 545.092889)">
                    <g id="MARGOT" transform="translate(642.161728, 693.572430) rotate(11.000000) translate(-642.161728, -693.572430) translate(105.661728, 92.072430)">
                        <g id="Left-arm" transform="translate(843.416197, 870.363772) rotate(25.000000) translate(-843.416197, -870.363772) translate(710.916197, 783.363772)">
                            <path d="M262.879256,77.8171412 C255.12958,66.3481296 231.782312,75.7508546 205.971718,86.9598082 C180.161124,98.1687618 150.18915,106.044649 144.090153,103.540235 C140.024151,101.870625 117.733408,82.8013932 81.6294082,51.0612123 C72.1380377,42.5429137 55.5805402,46.0741357 44.8316392,58.8825595 C34.0827382,71.7064714 33.0647369,89.1612402 42.5561057,97.6021 C88.6278745,135.805566 118.370842,156.679035 131.785011,160.222504 C151.906265,165.537702 195.487526,144.882897 221.223155,127.228061 C246.95879,109.573231 270.628932,89.2861528 262.879256,77.8171412 Z" id="Shape" fill="#2816AA"></path>
                            <g id="left-sleeve" transform="translate(0.000000, 0.000000)">
                                <mask id="mask-4" fill="white">
                                    <use xlink:href="#path-3"></use>
                                </mask>
                                <use id="Path-12" fill="#C4C3C7" fill-rule="nonzero" xlink:href="#path-3"></use>
                                <path d="M241.000243,123.733884 L215.832579,77.8100116 L192.171208,82.1349869 C195.203952,95.7904402 198.861161,107.164461 203.123181,116.244825 C207.24981,125.036736 212.579389,133.031764 219.120338,140.240821 L241.000243,123.733884 Z" id="Path-13" stroke="#141C3A" stroke-width="8.4" fill="#EFEFEF" mask="url(#mask-4)"></path>
                            </g>
                        </g>
                        <g id="Body" transform="translate(637.704711, 899.549233) rotate(-13.000000) translate(-637.704711, -899.549233) translate(417.704711, 639.549233)">
                            <path d="M15.4115,91.3570103 C6.87265666,141.207408 4.75004623,181.709369 4.43146705,300.853211 C4.11456916,419.997053 93.9096192,515.836328 203.13984,515.906755 L235.735684,515.92781 C344.965905,515.998199 434.272512,419.345648 434.207757,301.130313 L435.36963,186.558817 C435.36963,162.257224 429.875164,128.972776 422.355369,106.064752 C179.656308,97.7582937 44.008352,92.855713 15.4115,91.3570103 Z" id="Shape" fill="#3C2ABF" transform="translate(219.900548, 303.642410) rotate(-1.000000) translate(-219.900548, -303.642410) "></path>
                            <path d="M212.891218,110.186648 C325.493132,110.186648 420.04216,112.729164 418.539538,101.980546 C417.036915,91.231929 325.493132,79.4115741 212.891218,79.4115741 C100.289305,79.4115741 12.4144714,85.3455695 12.1025372,94.254825 C11.7922386,103.164081 100.289305,110.186648 212.891218,110.186648 Z" id="Oval" fill="#150D4C"></path>
                            <polygon id="neck" fill="#281B80" points="139.214685 0.622559613 303.619298 0.622559613 300.194597 98.6936737 139.214685 93.0721018"></polygon>
                        </g>
                        <g id="Head" transform="translate(536.017041, 431.091577) rotate(-21.000000) translate(-536.017041, -431.091577) translate(70.517041, 148.091577)">
                            <g id="Group-5">
                                <mask id="mask-7" fill="white">
                                    <use xlink:href="#path-6"></use>
                                </mask>
                                <g id="path-1">
                                    <use fill="#3E2DD6" xlink:href="#path-6"></use>
                                    <use fill-opacity="0.4" fill="url(#linearGradient-5)" style="mix-blend-mode: screen;" xlink:href="#path-6"></use>
                                </g>
                                <g id="Shape" mask="url(#mask-7)">
                                    <path d="M925.372541,521.471946 C920.795395,549.319985 752.795194,553.967127 483.086295,563.244005 C220.800266,572.259808 4.47429109,551.634853 1.93714518,513.3438 C-17.7085927,216.988443 204.44596,10.6866852 466.611989,0.487340693 C749.846618,-10.53004 966.395446,271.605411 925.372541,521.471946 Z" id="path-1" fill="#4D39E0"></path>
                                    <g id="Group-3" transform="translate(668.106518, 219.087737)">
                                        <g id="path-3">
                                            <use fill="#FFFFFF" xlink:href="#path-9"></use>
                                            <use fill="url(#linearGradient-8)" xlink:href="#path-9"></use>
                                        </g>
                                        <g id="Oval-Clipped" transform="translate(0.000000, 0.461995)">
                                            <mask id="mask-11" fill="white">
                                                <use xlink:href="#path-10"></use>
                                            </mask>
                                            <g id="path-3"></g>
                                            <ellipse id="Oval" fill="#141C3A" fill-rule="nonzero" mask="url(#mask-11)" cx="164.123527" cy="90.1253338" rx="15.4129325" ry="22.5313334"></ellipse>
                                        </g>
                                    </g>
                                </g>
                            </g>
                        </g>
                    </g>
                    <path d="M901.634986,1368.79337 C892.405352,1361.07414 905.697623,1276.06587 933.746597,1255.32255 C931.810019,1232.52776 926.766802,1201.31835 918.616947,1161.69432 C918.643605,1142.95801 936.692525,1127.60796 958.713108,1127.57668 C980.733691,1127.54544 996.664802,1160.9294 996.638177,1179.66572 C995.212285,1223.70071 991.187963,1253.78693 984.565209,1269.92438 C970.385727,1297.07079 910.86462,1376.5126 901.634986,1368.79337 Z" id="Shape" fill="#2816AA" transform="translate(947.682885, 1248.447790) rotate(-65.000000) translate(-947.682885, -1248.447790) "></path>
                    <g id="Pants" transform="translate(901.698506, 1218.883042) rotate(-6.000000) translate(-901.698506, -1218.883042) translate(801.198506, 1139.383042)">
                        <mask id="mask-14" fill="white">
                            <use xlink:href="#path-13"></use>
                        </mask>
                        <g id="Path-11" fill-rule="nonzero">
                            <use fill="#D8D8D8" xlink:href="#path-13"></use>
                            <use fill-opacity="0.4" fill="url(#linearGradient-12)" style="mix-blend-mode: multiply;" xlink:href="#path-13"></use>
                        </g>
                    </g>
                    <g id="Slippers" transform="translate(973.977374, 1250.273180)" fill-rule="nonzero">
                        <path d="M70.3269258,-24.6589425 L86.2303697,-24.628276 C88.0347248,-24.6247967 89.4965751,-23.16294 89.5000466,-21.358585 L89.8332986,151.85395 C89.8367796,153.663231 88.372889,155.132766 86.5636075,155.136247 C86.5594009,155.136255 86.5551942,155.136255 86.5509876,155.136247 L70.6475437,155.10558 C68.8431886,155.102101 67.3813383,153.640244 67.3778668,151.835889 L67.0446148,-21.3766457 C67.0411338,-23.1859272 68.5050244,-24.6554615 70.3143059,-24.6589425 C70.3185125,-24.6589506 70.3227191,-24.6589506 70.3269258,-24.6589425 Z" id="Rectangle" fill="#D8D8D8" transform="translate(78.438957, 65.238652) rotate(52.000000) translate(-78.438957, -65.238652) "></path>
                        <path d="M64.3410106,82.2459832 C48.5561246,53.4536 52.7405771,31.3395507 76.8943682,15.9038354 C101.048159,0.46812 124.983312,5.03285396 148.699826,29.5980372 L64.3410106,82.2459832 Z" id="Path-14" fill="#D957D9" transform="translate(101.841446, 44.607610) rotate(-6.000000) translate(-101.841446, -44.607610) "></path>
                    </g>
                    <g id="Hoodie" transform="translate(679.782728, 1050.197161) rotate(2.000000) translate(-679.782728, -1050.197161) translate(342.782728, 690.197161)">
                        <g id="Group" transform="translate(337.159447, 365.654785) rotate(-33.000000) translate(-337.159447, -365.654785) translate(116.159447, 87.654785)">
                            <mask id="mask-16" fill="white">
                                <use xlink:href="#path-15"></use>
                            </mask>
                            <use id="Path-5" fill="#D957D9" fill-rule="nonzero" xlink:href="#path-15"></use>
                            <path d="M259.573968,533.52854 C154.682259,441.894535 94.6047082,389.993458 79.3413155,377.825308 C64.0779227,365.657158 38.1081885,338.117462 1.43211275,295.20622 C-1.96378072,337.584312 2.60489526,368.911992 15.1381407,389.189259 C33.9380089,419.60516 59.8462895,413.992135 77.3486558,433.68238 C89.0169,446.809209 138.727566,489.657096 226.480655,562.226039 L259.573968,533.52854 Z" id="Path-6" fill="#EFEFEF" fill-rule="nonzero" mask="url(#mask-16)"></path>
                            <path d="M185.987442,194.118051 C163.737637,286.333287 157.287364,340.874143 166.636622,357.740622 C180.66051,383.040339 183.314654,382.491969 202.51227,394.027121 C215.31068,401.717222 237.747344,405.793286 269.822262,406.255315 L283.288924,406.212358 C290.224765,406.599963 298.248466,405.690066 307.360026,403.482667 C321.027366,400.171568 341.71309,402.95414 324.282512,384.97543 C306.851934,366.996719 248.150504,338.037466 239.342444,323.508208 C233.470404,313.822036 236.305486,268.517344 247.84769,187.594133 C245.259447,178.654502 237.472927,173.975865 224.488131,173.55822 C211.503336,173.140576 198.669772,179.993853 185.987442,194.118051 Z" id="Path-36" fill-opacity="0.5" fill="#9129A6" mask="url(#mask-16)"></path>
                        </g>
                        <g id="hood" transform="translate(251.373699, 197.613469) rotate(-22.000000) translate(-251.373699, -197.613469) ">
                            <use fill="#FFA6F8" xlink:href="#path-18"></use>
                            <use fill-opacity="0.3" fill="url(#linearGradient-17)" style="mix-blend-mode: multiply;" xlink:href="#path-18"></use>
                        </g>
                        <g id="right-arm" transform="translate(394.406687, 342.121148) rotate(-66.000000) translate(-394.406687, -342.121148) translate(281.406687, 195.621148)">
                            <path d="M105.438275,273.560318 C88.7027341,278.564255 66.7685963,249.350596 48.6637946,208.814171 C30.5589929,168.277746 34.2752131,140.163407 55.110647,118.750867 C72.0878861,101.303388 102.170119,84.0938556 145.357344,67.1222711 C156.266917,57.587667 175.277362,61.5159917 187.606627,75.8230223 C199.935874,90.1473751 201.08493,109.660479 190.175446,119.108512 C144.777663,134.396163 112.919536,148.967066 94.6010645,162.821222 C94.5687869,185.229684 100.152947,203.388812 104.136332,220.724961 C108.119718,238.061111 122.173816,268.55638 105.438275,273.560318 Z" id="Shape" fill="#4D39E0" transform="translate(117.349261, 168.015149) rotate(-17.000000) translate(-117.349261, -168.015149) "></path>
                            <g id="right-sleeve" transform="translate(96.198092, 125.273450) rotate(-3.000000) translate(-96.198092, -125.273450) translate(6.198092, 4.773450)" fill="#EFEFEF" fill-rule="nonzero">
                                <path d="M179.412529,68.7785906 C181.200647,95.1133878 170.558704,111.606872 145.250563,122.79162 C128.378469,130.248119 115.636012,140.626531 107.023193,153.926855 C95.4207063,165.30928 91.5719092,175.618466 95.4768021,184.854412 C99.381695,194.090359 76.2193781,203.961291 25.9898516,214.467208 C8.7087281,191.280646 0.0681663563,169.137751 0.0681663563,148.038522 C0.0681663563,126.939294 11.6971668,99.8829378 34.9551677,66.8694553 C54.8264313,40.6947917 69.8844582,22.8762947 80.1292484,13.4139641 C95.4964338,-0.779531712 121.060968,-5.89346612 145.431337,11.4054227 C169.801707,28.7043115 177.624411,42.4437934 179.412529,68.7785906 Z" id="Path-7"></path>
                                <path d="M34.069902,216.220802 L58.180572,238.469467 C58.7729932,239.016137 59.6566344,239.102277 60.343481,238.680314 L101.859909,213.17477 C102.580167,212.732281 102.895479,211.848213 102.617802,211.0498 L93.8557594,185.856023 C84.7342746,193.856609 74.6946373,200.185937 63.7486122,204.832273 C53.6166648,209.133052 43.7238919,212.929339 34.069902,216.220802 Z" id="Path-8" stroke="#141C3A" stroke-width="8.4"></path>
                            </g>
                        </g>
                    </g>
                </g>
            </g>
        </g>
    </g>
</svg>