<?xml version="1.0" encoding="UTF-8"?>
<svg width="3904px" height="3904px" viewBox="0 0 3904 3904" version="1.1" xmlns="http://www.w3.org/2000/svg" xmlns:xlink="http://www.w3.org/1999/xlink">
    <!-- Generator: Sketch 58 (84663) - https://sketch.com -->
    <title>codey-boba</title>
    <desc>Created with Sketch.</desc>
    <defs>
        <circle id="path-1" cx="1952" cy="1952" r="1952"></circle>
        <path d="M120.563038,766.235183 C81.3205063,766.235183 49.2232911,718.441611 49.2232911,660.109531 L-4.54747351e-13,100.657021 C-4.54747351e-13,45.2871155 54.2703797,3.41060513e-13 120.563038,3.41060513e-13 C186.855696,3.41060513e-13 241.126076,45.2871155 241.126076,100.657021 L191.902785,659.938636 C191.902785,718.441611 159.80557,766.235183 120.563038,766.235183 Z" id="path-3"></path>
        <path d="M195.845912,769.270361 C154.675279,769.270361 120.990216,721.476791 120.990216,663.144709 L69.2150261,103.692199 C69.2150261,48.3222935 125.923887,3.03518031 195.789203,3.03518031 C265.370975,3.03518031 322.363381,48.3222935 322.363381,103.692199 L270.701608,662.973814 C270.588191,721.476791 236.903127,769.270361 195.845912,769.270361 Z" id="path-5"></path>
        <path d="M42.4955009,0.597796842 C16.9355295,72.974861 0.243380234,184.455975 0.283471982,261.252219 L0.283471982,678.178493 C0.283471982,1051.75446 304.526582,1357.37127 676.423291,1357.37127 L787.402532,1357.37127 C1159.29924,1357.37127 1463.54237,1051.75446 1463.54237,678.178493 L1463.54237,261.252219 C1463.58244,184.455975 1450.54023,108.219083 1424.98025,35.8420185 L42.4955009,0.597796842 Z" id="path-7"></path>
        <linearGradient x1="47.6974794%" y1="50%" x2="96.4606583%" y2="52.3549692%" id="linearGradient-9">
            <stop stop-color="#3723CF" offset="0%"></stop>
            <stop stop-color="#141E3B" offset="100%"></stop>
        </linearGradient>
        <linearGradient x1="7.81920744%" y1="46.1639584%" x2="90.7130155%" y2="57.608071%" id="linearGradient-10">
            <stop stop-color="#5D47FF" offset="0%"></stop>
            <stop stop-color="#141E3B" stop-opacity="0" offset="100%"></stop>
        </linearGradient>
        <path d="M3058.97975,1706.72606 C3043.83848,1797.86994 2488.09165,1813.07958 1595.89114,1843.44188 C728.24557,1872.94971 12.6364557,1805.44628 4.2435443,1680.12344 C-60.801519,710.181697 674.088608,34.9764629 1541.33722,1.59501785 C2478.33772,-34.4637784 3194.62734,888.937626 3058.97975,1706.72606 Z" id="path-11"></path>
        <linearGradient x1="55.6093488%" y1="60.1025925%" x2="55.6093488%" y2="-7.93887657%" id="linearGradient-12">
            <stop stop-color="#FFFFFF" stop-opacity="0" offset="0%"></stop>
            <stop stop-color="#29BD89" offset="100%"></stop>
        </linearGradient>
        <polygon id="path-13" points="67.0543011 902.542561 1152 911.935004 1121.625 1311.40075 120 1334.54256"></polygon>
        <linearGradient x1="50%" y1="0%" x2="50%" y2="95.052709%" id="linearGradient-14">
            <stop stop-color="#FFFFFF" stop-opacity="0" offset="0%"></stop>
            <stop stop-color="#6DF0C2" offset="100%"></stop>
        </linearGradient>
        <path d="M1152,912.140626 C1146.60107,912.140626 785.67146,911.222848 69.211175,909.387294 C69.211175,621.957572 301.939865,419.147246 579.499563,408.977105 C586.926571,408.701866 594.240521,408 601.735366,408 C623.144981,408 644.1789,409.458775 664.991921,411.646937 C923.751017,438.826949 1152,604.042162 1152,912.140626 Z" id="path-15"></path>
        <linearGradient x1="50%" y1="0%" x2="50%" y2="100%" id="linearGradient-16">
            <stop stop-color="#FAD961" offset="0%"></stop>
            <stop stop-color="#F76B1C" offset="100%"></stop>
        </linearGradient>
        <path d="M946.272323,1093.64163 C941.040368,1125.63835 786.280278,1185.33805 509.125849,1185.33805 C231.97142,1185.33805 77.2113293,1125.63835 72.2576712,1096.06375 L-4.09272616e-12,60.0167273 C83.8625921,31.7770385 444.632622,-75.6769015 639.201135,91.6556393 C706.854755,149.841508 775.760708,179.19592 844.499682,179.19592 C855.158396,179.19592 865.817113,178.494057 876.447999,177.076567 C933.496825,169.493687 989.196341,158.460297 1023.51887,130.99128 L946.272323,1093.64163 Z" id="path-17"></path>
    </defs>
    <g id="codey-boba" stroke="none" stroke-width="1" fill="none" fill-rule="evenodd">
        <mask id="mask-2" fill="white">
            <use xlink:href="#path-1"></use>
        </mask>
        <use id="Oval" fill="#FFA6F8" xlink:href="#path-1"></use>
        <g id="Group-19-Copy-2" mask="url(#mask-2)">
            <g transform="translate(2525.455847, 1728.065607) rotate(-18.000000) translate(-2525.455847, -1728.065607) translate(661.455847, -442.934393)">
                <g id="Group-7-Copy-2" stroke-width="1" fill="none" transform="translate(0.000000, 0.000000)">
                    <g id="Margot_medal" transform="translate(1863.949262, 2170.906778) rotate(2.000000) translate(-1863.949262, -2170.906778) translate(72.949262, 61.906778)">
                        <g id="Group-4" transform="translate(1791.070173, 2108.802719) rotate(-3.000000) translate(-1791.070173, -2108.802719) translate(104.070173, 85.802719)">
                            <g id="Margot-2" transform="translate(0.000000, -0.000000)">
                                <g id="left-leg" transform="translate(1716.521763, 3263.209764)">
                                    <mask id="mask-4" fill="white">
                                        <use xlink:href="#path-3"></use>
                                    </mask>
                                    <use id="Shape" fill="#3221AD" xlink:href="#path-3"></use>
                                    <path d="M136.839082,227.503653 C207.732042,228.741095 284.224924,255.810084 284.6987,230.084553 L280.049559,54.0056243 L-7.95044128,24.6830678 L-10.6988193,182.137537 C40.3978077,211.556654 89.577108,226.678693 136.839082,227.503653 Z" id="Shape" fill-opacity="0.4" fill="#190991" style="mix-blend-mode: multiply;" mask="url(#mask-4)"></path>
                                </g>
                                <g id="right-leg" transform="translate(1251.936709, 3253.483224)">
                                    <mask id="mask-6" fill="white">
                                        <use xlink:href="#path-5"></use>
                                    </mask>
                                    <use id="Shape" fill="#3221AD" xlink:href="#path-5"></use>
                                    <path d="M169.489932,229.690754 C240.382892,230.928195 316.875774,257.997185 317.34955,232.271653 L312.700409,56.1927249 L24.7004088,26.8701684 L21.9520308,184.324638 C73.0486577,213.743754 122.227958,228.865793 169.489932,229.690754 Z" id="Shape" fill-opacity="0.4" fill="#190991" style="mix-blend-mode: multiply;" mask="url(#mask-6)"></path>
                                </g>
                                <g id="Layer_4" transform="translate(874.620253, 2067.545292)">
                                    <mask id="mask-8" fill="white">
                                        <use xlink:href="#path-7"></use>
                                    </mask>
                                    <use id="Shape" fill="#3723CF" xlink:href="#path-7"></use>
                                    <path d="M1291.59661,435.50829 C1302.21816,481.115662 1302.21816,537.948315 1257.73746,615.028506 C1213.25677,692.108697 1148.77359,738.869569 1038.03204,796.385194 C927.290487,853.900819 797.931272,849.507207 753.260712,849.507207 C708.590152,849.507207 682.748953,837.365662 682.748953,796.385194 C682.748953,769.064881 721.089347,748.1391 797.770135,733.60785 C918.20638,690.127485 998.293682,634.521065 1038.03204,566.788592 C1097.63958,465.189881 1127.15131,391.256895 1185.95208,377.737251 C1244.75285,364.217607 1280.97506,389.900917 1291.59661,435.50829 Z" id="Path-32" fill="#27199F" opacity="0.524507068" mask="url(#mask-8)" transform="translate(990.087119, 611.859547) rotate(-3.000000) translate(-990.087119, -611.859547) "></path>
                                    <path d="M-29.7520815,108.42563 C-16.3520415,109.735825 8.9490045,144.291108 143.723629,142.810021 C278.498254,141.328933 655.523249,145.030014 926.299674,163.467376 C1197.0761,181.904739 1501.12925,189.593407 1493.75976,143.064237 L1438.3563,21.0414388 L-15.6373727,48.099778 L-29.7520815,108.42563 Z" id="Shape" fill-opacity="0.3" fill="#190991" style="mix-blend-mode: multiply;" mask="url(#mask-8)" transform="translate(732.069523, 99.454167) rotate(10.000000) translate(-732.069523, -99.454167) "></path>
                                    <path d="M763.45054,1360.92135 L814.348844,503.446407 C835.864128,392.474836 830.058191,295.159468 796.93103,211.500304 C763.80387,127.841139 702.998429,65.5907695 614.514707,24.7491942 L333.914154,-36.7257218 C276.52356,702.626856 247.717294,1078.65423 247.495358,1091.35639 C247.163111,1110.40963 499.566136,1346.54418 591.244203,1357.91548 C652.362915,1365.49634 709.765027,1366.4983 763.45054,1360.92135 Z" id="Path-31" fill-opacity="0.3" fill="#141E3B" style="mix-blend-mode: multiply;" mask="url(#mask-8)"></path>
                                </g>
                                <ellipse id="Oval" fill="#190E99" cx="1613.11575" cy="2068.14309" rx="696" ry="60"></ellipse>
                                <g id="Group" transform="translate(1687.250646, 1201.961795) rotate(11.000000) translate(-1687.250646, -1201.961795) translate(149.250646, 276.461795)">
                                    <g id="Layer_3" transform="translate(-0.000000, -0.000000)">
                                        <g id="Shape">
                                            <use fill="#503AF7" xlink:href="#path-11"></use>
                                            <use fill-opacity="0.3" fill="url(#linearGradient-9)" style="mix-blend-mode: multiply;" xlink:href="#path-11"></use>
                                            <use fill-opacity="0.4" fill="url(#linearGradient-10)" style="mix-blend-mode: screen;" xlink:href="#path-11"></use>
                                        </g>
                                        <ellipse id="Oval-3" fill="#FFFFFF" cx="1428.51581" cy="1524.21782" rx="72" ry="84"></ellipse>
                                        <path d="M2190.18102,1276.1034 L744.105066,1276.1034 C617.948887,1275.72801 515.771937,1173.08969 515.39823,1046.36387 C515.39823,920.015669 656.149623,816.624334 781.929876,816.624334 L2140.90102,816.624334 C2266.68127,816.624334 2419.05798,920.015669 2419.05798,1046.36387 C2418.68383,1173.15618 2316.40362,1275.82185 2190.18102,1276.1034 Z" id="Shape" fill="#FFFFFF"></path>
                                    </g>
                                </g>
                                <g id="eye-balls" transform="translate(1537.277391, 1403.111522) rotate(10.000000) translate(-1537.277391, -1403.111522) translate(937.277391, 1295.111522)" fill="#060707">
                                    <ellipse id="Oval" cx="101.483602" cy="113.509018" rx="88.5701966" ry="101.516328"></ellipse>
                                    <ellipse id="Oval" cx="1100.18279" cy="113.509018" rx="88.5701966" ry="101.516328"></ellipse>
                                </g>
                            </g>
                        </g>
                    </g>
                </g>
                <g id="bubble-tea" stroke-width="1" fill="none" transform="translate(1306.542812, 2856.826285) rotate(4.000000) translate(-1306.542812, -2856.826285) translate(694.542812, 1680.826285)">
                    <g id="Path-7">
                        <use fill="#67E8BD" xlink:href="#path-13"></use>
                        <use fill-opacity="0.5" fill="url(#linearGradient-12)" style="mix-blend-mode: multiply;" xlink:href="#path-13"></use>
                    </g>
                    <g id="Path">
                        <use fill="#91F2D2" xlink:href="#path-15"></use>
                        <use fill-opacity="0.5" fill="url(#linearGradient-14)" style="mix-blend-mode: multiply;" xlink:href="#path-15"></use>
                    </g>
                    <rect id="Rectangle" fill="#47CCA0" x="69.211175" y="909.387294" width="1080" height="24"></rect>
                    <g id="Group-14" transform="translate(102.883295, 1113.113893)">
                        <g id="Path">
                            <use fill="#FFCD39" xlink:href="#path-17"></use>
                            <use fill-opacity="0.3" fill="url(#linearGradient-16)" style="mix-blend-mode: multiply;" xlink:href="#path-17"></use>
                        </g>
                        <g id="Group-18" transform="translate(-0.000000, -0.000000)"></g>
                        <path d="M81.6601404,365.443095 C81.6601404,325.681277 113.894954,293.439301 153.66014,293.439301 C193.424378,293.439301 225.66014,325.681277 225.66014,365.443095 C225.66014,405.204913 193.424378,437.439301 153.66014,437.439301 C113.894954,437.439301 81.6601404,405.204912 81.6601404,365.443095 Z" id="Path" fill="#141C3A"></path>
                        <path d="M169.718866,936.633357 C169.718866,896.871539 201.95368,864.629563 241.718866,864.629563 C281.483103,864.629563 313.718866,896.871539 313.718866,936.633357 C313.718866,976.395175 281.483103,1008.62956 241.718866,1008.62956 C201.95368,1008.62956 169.718866,976.395173 169.718866,936.633357 Z" id="Path-Copy" fill="#141C3A"></path>
                        <path d="M640.744736,448.315569 C640.744736,408.551655 672.980498,376.315569 712.744736,376.315569 C752.509923,376.315569 784.744736,408.551657 784.744736,448.315569 C784.744736,488.079481 752.509921,520.315569 712.744736,520.315569 C672.980498,520.315569 640.744736,488.079482 640.744736,448.315569 Z" id="Path" fill="#141C3A"></path>
                        <path d="M410.83298,1073.20144 C410.83298,1033.43752 443.068742,1001.20144 482.83298,1001.20144 C522.598167,1001.20144 554.83298,1033.43753 554.83298,1073.20144 C554.83298,1112.96535 522.598165,1145.20144 482.83298,1145.20144 C443.068742,1145.20144 410.83298,1112.96535 410.83298,1073.20144 Z" id="Path-Copy-3" fill="#141C3A"></path>
                        <path d="M564.80832,782.951481 C604.572558,782.951481 636.80832,815.187569 636.80832,854.951481 C636.80832,894.715393 604.572558,926.951481 564.80832,926.951481 C525.044083,926.951481 492.80832,894.715393 492.80832,854.951481 C492.80832,815.187569 525.044081,782.951481 564.80832,782.951481 Z" id="Path" fill="#141C3A"></path>
                        <path d="M867.064156,864.913914 C867.064156,904.677827 834.828606,936.913914 795.063682,936.913914 C755.299706,936.913914 723.064156,904.677826 723.064156,864.913914 C723.064156,825.150003 755.299706,792.913914 795.063682,792.913914 C834.828606,792.913914 867.064156,825.150003 867.064156,864.913914 Z" id="Path" fill="#141C3A"></path>
                    </g>
                    <path d="M463.470841,1117.58017 C476.608493,947.931206 496.314971,693.457762 522.590274,354.159836 C524.395891,329.331716 538.89862,307.197711 560.94096,295.629176 L756.865694,192.801518 C792.075528,174.322254 835.599142,187.885062 854.078405,223.094896 C872.557669,258.30473 858.994861,301.828344 823.785027,320.307607 L663.307307,404.531522 C638.068346,729.859516 619.139126,973.855511 606.519646,1136.51951" id="straw-base" fill="#3EB38C" fill-rule="nonzero"></path>
                    <path d="M625.38171,893.389152 C610.596903,1083.96401 588.419694,1369.82631 558.850081,1750.97603 M415.229376,1740.53126 C444.634476,1360.8177 466.6883,1076.03252 481.39085,886.175737" id="Shape" fill="#246650" fill-rule="nonzero"></path>
                    <path d="M570.803756,1846.55418 C570.803756,1886.316 538.567994,1918.55039 498.803756,1918.55039 C459.039519,1918.55039 426.803756,1886.316 426.803756,1846.55418 C426.803756,1806.78478 459.039519,1774.55039 498.803756,1774.55039 C538.567994,1774.55039 570.803756,1806.78478 570.803756,1846.55418 Z" id="bubble" fill="#141C3A"></path>
                    <path d="M601.735366,408 C622.444554,408 642.802227,409.364887 662.94848,411.434544 L623.942427,910.806586 C578.68025,910.691006 530.508694,910.567915 479.42776,910.437314 L518.027417,414.450252 C538.214671,411.577534 558.731623,409.738069 579.499563,408.977105 C586.926571,408.701866 594.240521,408 601.735366,408 Z" id="1st-part-of-the-straw" fill="#318C6E"></path>
                    <path d="M606.728936,1133.86702 L606.539952,1136.25776 C593.671257,1302.13412 577.774633,1507.04021 558.850081,1750.97603 C555.965837,1790.6358 524.710358,1812.01633 485.050596,1809.13208 C445.390833,1806.24784 412.345133,1780.19103 415.229376,1740.53126 C434.613632,1490.21873 450.803295,1281.15858 463.798363,1113.35082 C512.172256,1114.56476 560.803313,1120.61546 606.728936,1133.86702 Z" id="bottom-straw" fill="#E67E00"></path>
                </g>
                <path d="M770,2775.16625 C816.391919,2775.16625 878.785156,2731.39192 878.785156,2685 C878.785156,2638.60808 816.391919,2604.00819 770,2604.00819 C723.608081,2604.00819 686,2638.60808 686,2685 C686,2731.39192 723.608081,2775.16625 770,2775.16625 Z" id="Oval" fill="#3E30C3"></path>
                <path d="M2307.05351,3024.64602 C2361.10927,2997.10323 2222.82389,2725.7029 2062.84347,2620.67848 C1902.86305,2515.65406 1795.70938,2477.63994 1740.53137,2505.75454 C1685.35335,2533.86915 1654.05538,2632.71487 1768.25629,2703.5964 C1882.4572,2774.47792 2061.46197,2834.26037 2177.88456,2952.39491 C2195.04827,2969.19751 2252.99775,3052.1888 2307.05351,3024.64602 Z" id="Shape" fill="#4E37F5" transform="translate(2004.920677, 2763.498924) rotate(118.000000) translate(-2004.920677, -2763.498924) "></path>
            </g>
        </g>
    </g>
</svg>