<?xml version="1.0" encoding="UTF-8"?>
<svg width="3904px" height="3904px" viewBox="0 0 3904 3904" version="1.1" xmlns="http://www.w3.org/2000/svg" xmlns:xlink="http://www.w3.org/1999/xlink">
    <!-- Generator: Sketch 58 (84663) - https://sketch.com -->
    <title>codey-builder</title>
    <desc>Created with Sketch.</desc>
    <defs>
        <circle id="path-1" cx="1952" cy="1952" r="1952"></circle>
        <path d="M120.563038,766.235183 C81.3205063,766.235183 49.2232911,718.441611 49.2232911,660.109531 L-4.54747351e-13,100.657021 C-4.54747351e-13,45.2871155 54.2703797,3.41060513e-13 120.563038,3.41060513e-13 C186.855696,3.41060513e-13 241.126076,45.2871155 241.126076,100.657021 L191.902785,659.938636 C191.902785,718.441611 159.80557,766.235183 120.563038,766.235183 Z" id="path-3"></path>
        <path d="M195.845912,769.270361 C154.675279,769.270361 120.990216,721.476791 120.990216,663.144709 L69.2150261,103.692199 C69.2150261,48.3222935 125.923887,3.03518031 195.789203,3.03518031 C265.370975,3.03518031 322.363381,48.3222935 322.363381,103.692199 L270.701608,662.973814 C270.588191,721.476791 236.903127,769.270361 195.845912,769.270361 Z" id="path-5"></path>
        <path d="M47.5546336,5.94629754 C21.9946623,78.3233617 0.243380235,201.455975 0.283488769,278.252219 L0.283488769,695.178493 C0.283488769,1068.75446 304.526582,1374.37127 676.423291,1374.37127 L787.402532,1374.37127 C1159.29924,1374.37127 1463.54237,1068.75446 1463.54237,695.178493 L1463.54237,278.252219 C1463.58244,201.455975 1450.54023,125.219083 1424.98025,52.8420185 L47.5546336,5.94629754 Z" id="path-7"></path>
        <linearGradient x1="36.9142954%" y1="9.96569055%" x2="75.8546101%" y2="75.3226173%" id="linearGradient-9">
            <stop stop-color="#190E99" offset="0%"></stop>
            <stop stop-color="#000000" offset="100%"></stop>
        </linearGradient>
        <linearGradient x1="23.0825787%" y1="24.469834%" x2="47.8527637%" y2="22.6112266%" id="linearGradient-10">
            <stop stop-color="#4932FF" offset="0%"></stop>
            <stop stop-color="#000000" stop-opacity="0" offset="100%"></stop>
        </linearGradient>
        <path d="M2675.74749,2659.93971 C2729.80324,2632.39693 2794.32299,2263.75716 2634.34257,2158.73275 C2474.36216,2053.70833 2367.20849,2015.69421 2312.03047,2043.80881 C2256.85245,2071.92341 2225.55448,2170.76914 2339.75539,2241.65066 C2398.37009,2278.03127 2502.39573,2333.62682 2549.59039,2351.41137 C2596.78506,2369.19592 2584.15779,2468.33607 2593.93488,2549.08939 C2603.71196,2629.84271 2621.69173,2687.48249 2675.74749,2659.93971 Z" id="path-11"></path>
        <linearGradient x1="110.257467%" y1="7.47111322%" x2="0%" y2="40.522782%" id="linearGradient-12">
            <stop stop-color="#FFD500" offset="0%"></stop>
            <stop stop-color="#F15871" offset="100%"></stop>
        </linearGradient>
        <path d="M26.0103638,-4.54747351e-13 L383.761767,45.0545996 C474.271666,202.158945 646.541135,308.270031 844.170538,308.270031 C1025.30863,308.270031 1185.14255,219.12909 1280.24619,83.286367 L1463.61328,90.6679687 C1485.4776,262.655744 1491.03811,465.156994 1480.2948,698.17172 C1469.55149,931.186446 1452.95192,1131.72123 1430.49609,1299.77608 C1231.11029,1346.6677 1014.50399,1370.11352 780.67719,1370.11352 C546.850387,1370.11352 306.495387,1308.52989 59.61219,1185.36264 C36.1804165,1033.27637 18.3096865,857.11162 6,656.868387 C-6.30968649,456.625153 0.360434764,237.669024 26.0103638,-4.54747351e-13 Z M182.702728,767.349677 C263.387934,767.349677 314.702728,614.829636 314.702728,430.745094 C314.702728,246.660552 263.387934,167.349677 182.702728,167.349677 C102.017522,167.349677 50.7027281,246.660552 50.7027281,430.745094 C50.7027281,614.829636 102.017522,767.349677 182.702728,767.349677 Z" id="path-13"></path>
        <linearGradient x1="47.6974794%" y1="50%" x2="96.4606583%" y2="52.3549692%" id="linearGradient-15">
            <stop stop-color="#3723CF" offset="0%"></stop>
            <stop stop-color="#141E3B" offset="100%"></stop>
        </linearGradient>
        <linearGradient x1="7.81920744%" y1="46.1639584%" x2="90.7130155%" y2="57.608071%" id="linearGradient-16">
            <stop stop-color="#5D47FF" offset="0%"></stop>
            <stop stop-color="#141E3B" stop-opacity="0" offset="100%"></stop>
        </linearGradient>
        <path d="M3063.97975,1706.72606 C3048.83848,1797.86994 2493.09165,1813.07958 1600.89114,1843.44188 C733.24557,1872.94971 17.6364557,1805.44628 9.2435443,1680.12344 C-55.801519,710.181697 679.088608,34.9764629 1546.33722,1.59501785 C2483.33772,-34.4637784 3199.62734,888.937626 3063.97975,1706.72606 Z" id="path-17"></path>
        <path d="M3075.80159,1708.98716 C3060.67651,1800.04497 2505.52353,1815.24025 1614.27639,1845.57388 C747.55796,1875.05385 32.7135225,1807.61415 24.3295795,1682.40966 C-40.5893305,713.383759 693.515517,38.8160749 1559.83741,5.4661498 C2495.78003,-30.5585988 3211.36088,891.970902 3075.80159,1708.98716 Z" id="path-18"></path>
        <linearGradient x1="94.5667553%" y1="40.7760665%" x2="3.62661152%" y2="40.7760665%" id="linearGradient-20">
            <stop stop-color="#D9D4D4" stop-opacity="0.678048514" offset="0%"></stop>
            <stop stop-color="#FFFFFF" stop-opacity="0.0965635927" offset="47.396884%"></stop>
            <stop stop-color="#000000" stop-opacity="0.0633468094" offset="100%"></stop>
        </linearGradient>
        <rect id="path-21" x="449.453631" y="290.867726" width="2280" height="240"></rect>
        <linearGradient x1="59.4577384%" y1="9.48308126%" x2="70.3237269%" y2="50%" id="linearGradient-22">
            <stop stop-color="#DAD5FF" offset="0%"></stop>
            <stop stop-color="#141E3B" stop-opacity="0" offset="100%"></stop>
        </linearGradient>
        <path d="M554.26464,2777.26402 C534.125119,2754.26967 542.171174,2720.25192 556.404217,2669.98487 C570.633896,2619.71783 684.981836,2462.44993 735.268157,2410.91397 C786.671814,2358.23291 898.850508,2263.02045 980.534305,2236.13409 C1062.2181,2209.24772 1113.29518,2199.72627 1154.03096,2246.84891 C1194.76676,2294.02852 1203.94857,2368.8084 1128.50536,2416.53623 C1053.06214,2464.26407 915.54617,2499.2852 861.792615,2538.54837 C797.327829,2585.63535 720.303608,2665.39714 630.719957,2777.83373 C613.655815,2794.40361 574.404161,2800.25837 554.26464,2777.26402 Z" id="path-23"></path>
        <linearGradient x1="50%" y1="0%" x2="50%" y2="100%" id="linearGradient-24">
            <stop stop-color="#FFFFFF" stop-opacity="0.5" offset="0%"></stop>
            <stop stop-color="#D7D7D7" stop-opacity="0.5" offset="60.2563625%"></stop>
            <stop stop-color="#000000" stop-opacity="0.5" offset="100%"></stop>
        </linearGradient>
        <rect id="path-25" x="2.27373675e-12" y="156.190476" width="984" height="93.7142857" rx="46.8571429"></rect>
    </defs>
    <g id="codey-builder" stroke="none" stroke-width="1" fill="none" fill-rule="evenodd">
        <g id="Group">
            <mask id="mask-2" fill="white">
                <use xlink:href="#path-1"></use>
            </mask>
            <use id="Oval" fill="#FFE359" xlink:href="#path-1"></use>
            <g id="Codey_workout-Copy" mask="url(#mask-2)">
                <g transform="translate(1585.000000, 2096.000000) rotate(-1.000000) translate(-1585.000000, -2096.000000) translate(-34.000000, 144.000000)">
                    <g id="left-leg" stroke="none" stroke-width="1" fill="none" fill-rule="evenodd" transform="translate(1657.744264, 3121.406718)">
                        <mask id="mask-4" fill="white">
                            <use xlink:href="#path-3"></use>
                        </mask>
                        <use id="Shape" fill="#3221AD" xlink:href="#path-3"></use>
                        <path d="M136.839082,227.503653 C207.732042,228.741095 284.224924,255.810084 284.6987,230.084553 L280.049559,54.0056243 L-7.95044128,24.6830678 L-10.6988193,182.137537 C40.3978077,211.556654 89.577108,226.678693 136.839082,227.503653 Z" id="Shape" fill-opacity="0.4" fill="#190991" style="mix-blend-mode: multiply;" mask="url(#mask-4)"></path>
                    </g>
                    <g id="right-leg" stroke="none" stroke-width="1" fill="none" fill-rule="evenodd" transform="translate(1193.159209, 3111.680177)">
                        <mask id="mask-6" fill="white">
                            <use xlink:href="#path-5"></use>
                        </mask>
                        <use id="Shape" fill="#3221AD" xlink:href="#path-5"></use>
                        <path d="M169.489932,229.690754 C240.382892,230.928195 316.875774,257.997185 317.34955,232.271653 L312.700409,56.1927249 L24.7004088,26.8701684 L21.9520308,184.324638 C73.0486577,213.743754 122.227958,228.865793 169.489932,229.690754 Z" id="Shape" fill-opacity="0.4" fill="#190991" style="mix-blend-mode: multiply;" mask="url(#mask-6)"></path>
                    </g>
                    <g id="Body" stroke="none" stroke-width="1" fill="none" fill-rule="evenodd" transform="translate(815.842754, 1908.742245)">
                        <mask id="mask-8" fill="white">
                            <use xlink:href="#path-7"></use>
                        </mask>
                        <use id="Shape" fill="#3723CF" xlink:href="#path-7"></use>
                        <path d="M-21.0571294,125.963276 C-7.65708935,127.27347 175.476791,145.559209 310.251416,144.078122 C445.026041,142.597035 692.897003,152.793754 910.990099,144.078122 C1129.08319,135.362489 1466.94287,100.841744 1466.94287,100.841744 L1447.05126,38.579084 L-6.94242055,65.6374231 L-21.0571294,125.963276 Z" id="Shape" fill-opacity="0.3" fill="#190991" style="mix-blend-mode: multiply;" mask="url(#mask-8)" transform="translate(722.942871, 93.111008) rotate(3.000000) translate(-722.942871, -93.111008) "></path>
                        <path d="M-234.602332,595.9822 C-175.726019,716.571161 -103.513482,783.198782 -17.9647226,795.865061 C110.358416,814.864481 326.59091,842.435704 382.840346,837.267469 C439.089783,832.099234 607.859844,772.923481 432.198,722.564922 C315.090104,688.992549 162.833388,602.791173 -24.5721496,463.960794 C-130.633881,433.548082 -196.387965,435.548154 -221.834404,469.961011 C-247.280842,504.373868 -251.536818,546.380931 -234.602332,595.9822 Z" id="Path-29" fill-opacity="0.4" fill="#190991" style="mix-blend-mode: multiply;" mask="url(#mask-8)" transform="translate(132.630232, 640.230057) rotate(75.000000) translate(-132.630232, -640.230057) "></path>
                        <path d="M1371.18845,269.576451 C1341.38654,290.42074 1326.12174,321.687365 1325.39405,363.376328 C1324.30253,425.909771 1377.75565,513.779349 1394.89258,550.623622 C1412.02951,587.467895 1468.19193,653.073073 1467.21863,708.833289 C1466.56976,746.006766 1465.84024,606.493907 1465.03006,290.294709 L1371.18845,269.576451 Z" id="Path-30" fill-opacity="0.3" fill="#190991" style="mix-blend-mode: multiply;" mask="url(#mask-8)"></path>
                    </g>
                    <path d="M1598.65025,2348.79339 C1512.27132,2348.79339 1452.56823,2416.31968 1452.56823,2508.0535 C1452.56823,2599.78733 1512.27132,2667.31362 1598.65025,2667.31362 C1659.62362,2667.31362 1705.35365,2632.91343 1726.94838,2578.12795 L1881.92235,2626.54303 C1843.814,2742.48439 1729.48894,2815.10701 1597.37997,2815.10701 C1424.6221,2815.10701 1287.43203,2686.42483 1287.43203,2508.0535 C1287.43203,2329.68217 1424.6221,2201 1597.37997,2201 C1729.48894,2201 1843.814,2274.89669 1881.92235,2390.83806 L1726.94838,2437.97905 C1705.35365,2384.46765 1659.62362,2348.79339 1598.65025,2348.79339 Z" id="c" stroke="none" fill="#6653F5" fill-rule="evenodd"></path>
                    <g id="left-arm" stroke="none" fill="none" transform="translate(2498.953489, 2350.880066) scale(1, -1) rotate(-72.000000) translate(-2498.953489, -2350.880066) " fill-rule="evenodd">
                        <use fill="#634EFF" xlink:href="#path-11"></use>
                        <use fill-opacity="0.4" fill="url(#linearGradient-9)" style="mix-blend-mode: multiply;" xlink:href="#path-11"></use>
                        <use fill-opacity="0.03" fill="url(#linearGradient-10)" style="mix-blend-mode: screen;" xlink:href="#path-11"></use>
                    </g>
                    <path d="M1218,3212.77608 L1222.61522,3347.50672 C1276.62114,3374.1238 1338.19264,3387.43234 1407.32971,3387.43234 C1476.46679,3387.43234 1528.78197,3379.1368 1564.27527,3362.54573 L1564.27527,3236.71753 C1508.72978,3243.65715 1446.82812,3243.65715 1378.57031,3236.71753 C1310.3125,3229.77791 1256.78906,3221.79743 1218,3212.77608 Z" id="shorts" stroke="none" fill="#141E3B" fill-rule="evenodd"></path>
                    <path d="M1636.60034,3212.57851 L1627.42312,3343.81885 C1679.59418,3362.1692 1736.89696,3373.5273 1799.33147,3377.89315 C1861.76598,3382.25899 1907.80829,3380.64677 1937.4584,3373.05648 L1951.48963,3232.76815 C1916.86812,3242.20897 1865.42846,3243.45958 1797.17065,3236.51996 C1728.91284,3229.58035 1675.3894,3221.59986 1636.60034,3212.57851 Z" id="shorts-copy" stroke="none" fill="#141E3B" fill-rule="evenodd" transform="translate(1789.456373, 3296.431486) rotate(-4.000000) translate(-1789.456373, -3296.431486) "></path>
                    <g id="shirt" stroke="none" stroke-width="1" fill="none" fill-rule="evenodd" transform="translate(804.000000, 1913.000000)">
                        <mask id="mask-14" fill="white">
                            <use xlink:href="#path-13"></use>
                        </mask>
                        <g>
                            <use fill="#FF9F3C" xlink:href="#path-13"></use>
                            <use fill-opacity="0.3" fill="url(#linearGradient-12)" style="mix-blend-mode: multiply;" xlink:href="#path-13"></use>
                        </g>
                        <ellipse id="Oval" fill="#FA6400" mask="url(#mask-14)" cx="858" cy="-96" rx="588" ry="504"></ellipse>
                        <ellipse id="Oval" fill="#FA6400" mask="url(#mask-14)" cx="186" cy="468" rx="180" ry="348"></ellipse>
                        <path d="M6,76.921875 C62.9316646,94.2421875 128.919946,102.902344 203.964844,102.902344 C279.009742,102.902344 365.02146,109.008861 462,121.221895 L418.615217,27.9145329 C349.340224,9.30484429 277.7901,9.09494702e-13 203.964844,9.09494702e-13 C130.139588,9.09494702e-13 70.8214275,9.09494702e-13 26.0103638,9.09494702e-13 L6,76.921875 Z" id="Path-34" fill-opacity="0.3" fill="#164032" mask="url(#mask-14)"></path>
                        <path d="M1140.99609,123.257812 C1197.92776,140.578125 1263.91604,149.238281 1338.96094,149.238281 C1414.00584,149.238281 1500.01755,155.344798 1596.99609,167.557833 L1553.61131,74.2504704 C1484.33632,55.6407818 1412.78619,46.3359375 1338.96094,46.3359375 C1265.13568,46.3359375 1205.81752,46.3359375 1161.00646,46.3359375 L1140.99609,123.257812 Z" id="Path-34-Copy" fill-opacity="0.3" fill="#164032" mask="url(#mask-14)" transform="translate(1368.996094, 106.946885) rotate(-3.000000) translate(-1368.996094, -106.946885) "></path>
                        <ellipse id="Oval" fill="#FA6400" mask="url(#mask-14)" cx="957.711658" cy="738.210439" rx="216" ry="228"></ellipse>
                        <path d="M964.793308,644.004673 C915.972796,644.004673 882.229206,683.589735 882.229206,737.365668 C882.229206,791.141602 915.972796,830.726664 964.793308,830.726664 C999.254847,830.726664 1025.101,810.560689 1037.30613,778.444507 L1124.89587,806.826249 C1103.35741,874.793054 1038.74203,917.365668 964.07536,917.365668 C866.434334,917.365668 788.895873,841.929984 788.895873,737.365668 C788.895873,632.801353 866.434334,557.365668 964.07536,557.365668 C1038.74203,557.365668 1103.35741,600.68517 1124.89587,668.651975 L1037.30613,696.28683 C1025.101,664.917536 999.254847,644.004673 964.793308,644.004673 Z" id="c" fill="#FFD500" fill-rule="nonzero" mask="url(#mask-14)"></path>
                        <path d="M173.261719,781.204752 C165.355469,900.114225 161.402344,959.568961 161.402344,959.568961 C161.402344,959.568961 134.684685,1012.27874 97.1484375,959.568961 C72.1242725,924.429111 56.6423693,825.756683 50.7027281,663.55168 L72.9469095,622.995529 C83.60395,674.036717 98.1892229,709.637353 116.702728,729.797436 C135.216233,749.957519 154.06923,767.093291 173.261719,781.204752 Z" id="Path-35" fill-opacity="0.2" fill="#246650" style="mix-blend-mode: multiply;" mask="url(#mask-14)"></path>
                        <g id="dumbell" opacity="0.499930246" mask="url(#mask-14)" fill="#164032" fill-opacity="0.3" fill-rule="nonzero">
                            <g transform="translate(1761.661038, 459.661038) rotate(45.000000) translate(-1761.661038, -459.661038) translate(1257.661038, 183.661038)">
                                <rect id="Rectangle" x="23.7930727" y="216" width="984" height="120" rx="50.688"></rect>
                                <rect id="Rectangle" x="102.925974" y="111.514719" width="96" height="312" rx="48"></rect>
                                <rect id="Rectangle-Copy-2" x="798.719046" y="94.5441559" width="96" height="312" rx="48"></rect>
                                <rect id="Rectangle-Copy" x="192.74935" y="20.4852814" width="120" height="528" rx="60"></rect>
                                <rect id="Rectangle-Copy-3" x="701.866233" y="20.4852814" width="120" height="528" rx="60"></rect>
                            </g>
                        </g>
                    </g>
                    <g id="Head" stroke="none" stroke-width="1" fill="none" fill-rule="evenodd" transform="translate(-0.000000, -0.000000)">
                        <g transform="translate(1627.521209, 1082.702972) rotate(4.000000) translate(-1627.521209, -1082.702972) translate(79.521209, 146.702972)" id="Layer_3">
                            <g transform="translate(0.000000, 0.000000)">
                                <g id="Shape">
                                    <use fill="#503AF7" xlink:href="#path-17"></use>
                                    <use fill-opacity="0.3" fill="url(#linearGradient-15)" style="mix-blend-mode: multiply;" xlink:href="#path-17"></use>
                                    <use fill-opacity="0.4" fill="url(#linearGradient-16)" style="mix-blend-mode: screen;" xlink:href="#path-17"></use>
                                </g>
                                <path d="M1555.17266,1312.54866 C1562.59823,1429.53088 1641.84497,1521.88526 1738.56007,1521.88526 C1835.27516,1521.88526 1914.46103,1429.53088 1921.94747,1312.54866 L1555.17266,1312.54866 Z" id="Shape" fill="#FFFFFF" fill-rule="nonzero" transform="translate(1738.560066, 1417.216962) rotate(-1.000000) translate(-1738.560066, -1417.216962) "></path>
                                <path d="M2342.38588,1082.69791 L975.052922,1082.69791 C855.76631,1082.32251 759.153189,979.684194 758.799831,852.958372 C758.799831,726.610171 891.886906,623.218837 1010.81806,623.218837 L2295.78932,623.218837 C2414.72047,623.218837 2558.79983,726.610171 2558.79983,852.958372 C2558.44606,979.750683 2461.7353,1082.41635 2342.38588,1082.69791 Z" id="Shape" fill="#FFFFFF"></path>
                                <ellipse id="Oval" fill="#060707" fill-rule="nonzero" transform="translate(1142.094933, 935.852192) rotate(-11.000000) translate(-1142.094933, -935.852192) " cx="1142.09493" cy="935.852192" rx="90.1416371" ry="103.498479"></ellipse>
                                <ellipse id="Oval" fill="#060707" fill-rule="nonzero" transform="translate(2174.094933, 935.852192) rotate(-11.000000) translate(-2174.094933, -935.852192) " cx="2174.09493" cy="935.852192" rx="90.1416371" ry="103.498479"></ellipse>
                            </g>
                        </g>
                        <g id="headband" transform="translate(0.000000, 0.000000)">
                            <g id="Rectangle-2-Clipped" transform="translate(1609.690128, 1041.961419) rotate(4.000000) translate(-1609.690128, -1041.961419) translate(61.690128, 105.961419)">
                                <mask id="mask-19" fill="white">
                                    <use xlink:href="#path-18"></use>
                                </mask>
                                <g id="path-1"></g>
                                <g id="Rectangle-2" mask="url(#mask-19)">
                                    <use fill="#FFFFFF" xlink:href="#path-21"></use>
                                    <use fill="url(#linearGradient-20)" xlink:href="#path-21"></use>
                                </g>
                                <rect id="Rectangle-2-Copy-2" fill="#FA4359" mask="url(#mask-19)" x="441.919931" y="267.130809" width="2280" height="72"></rect>
                                <rect id="Rectangle-2-Copy" fill="#FA4359" mask="url(#mask-19)" x="431.371637" y="460.337262" width="2280" height="72"></rect>
                            </g>
                        </g>
                    </g>
                    <g id="Shape" stroke="none" fill="none" transform="translate(863.612190, 2503.093649) rotate(-25.000000) translate(-863.612190, -2503.093649) " fill-rule="evenodd">
                        <use fill="#3723CF" xlink:href="#path-23"></use>
                        <use fill-opacity="0.2" fill="url(#linearGradient-22)" style="mix-blend-mode: screen;" xlink:href="#path-23"></use>
                    </g>
                    <g id="dumbell" stroke="none" stroke-width="1" fill="none" fill-rule="evenodd" transform="translate(2178.656049, 1916.232213)">
                        <g transform="translate(492.499873, 491.792766) rotate(45.000000) translate(-492.499873, -491.792766) translate(0.499873, 288.292766)" fill-rule="nonzero">
                            <g id="Rectangle">
                                <use fill="#FFFFFF" xlink:href="#path-25"></use>
                                <use fill-opacity="0.5" fill="url(#linearGradient-24)" xlink:href="#path-25"></use>
                            </g>
                            <rect id="Rectangle" fill="#323233" x="91.6103894" y="78.0952381" width="93.7142857" height="249.904762" rx="46.8571429"></rect>
                            <rect id="Rectangle-Copy-2" fill="#323233" x="787.403462" y="61.1246753" width="93.7142857" height="249.904762" rx="46.8571429"></rect>
                            <rect id="Rectangle-Copy" fill="#000000" x="169.705627" y="4.61852778e-13" width="124.952381" height="406.095238" rx="62.4761905"></rect>
                            <rect id="Rectangle-Copy-3" fill="#000000" x="678.82251" y="2.34479103e-13" width="124.952381" height="406.095238" rx="62.4761905"></rect>
                        </g>
                        <path d="M534.981313,425.366056 C564.859819,400.199184 606.214784,400.974567 645.053862,437.013675 C683.892939,473.052783 673.004221,512.059426 660.012064,541.842243 C647.019908,571.62506 589.003528,616.300546 542.456538,593.962803 C511.425211,579.070975 499.173719,548.293869 505.702062,501.631486 C505.302559,467.565781 515.062309,442.143971 534.981313,425.366056 Z" id="Path-3" fill="#4D39E0" fill-rule="nonzero"></path>
                    </g>
                    <path d="" id="Path-33" stroke="#979797" stroke-width="24" fill="none"></path>
                </g>
            </g>
        </g>
    </g>
</svg>